<?xml version="1.0" encoding="UTF-8"?>
<svg xmlns:xodm="http://www.corel.com/coreldraw/odm/2003" xmlns="http://www.w3.org/2000/svg" xmlns:xlink="http://www.w3.org/1999/xlink" version="1.1" id="Layer_1" x="0px" y="0px" viewBox="0 0 2500 836" style="enable-background:new 0 0 2500 836;" xml:space="preserve">
<g id="Layer_x0020_1">
	<path fill="#fff" d="M2137.7,783.8V837h361.8V600h-53.2V785h-308.6V783.8z M2137.7,0.2v53.2h308.6v184.9h53.2V1.3h-361.8V0.2z M1951.6,407   V284.5h82.1c40.5,0,54.3,13.9,54.3,49.7v22c0,38.1-13.9,50.9-54.3,50.9H1951.6z M2082.2,429c38.1-9.2,63.6-45.1,63.6-86.7   c0-26.6-10.4-49.7-30.1-69.3c-24.3-24.3-57.8-35.8-100.6-35.8h-115.6v361.8h52V454.4h77.4c39.3,0,55.5,16.2,55.5,57.8v86.7h53.2   v-77.4c0-56.6-13.9-78.6-54.3-84.4v-6.9L2082.2,429z M1647.6,440.5h159.5v-47.4h-159.5V284.5h174.5v-47.4h-226.5v361.8h234.6v-47.4   h-182.6V440.5z M1474.2,460.2v24.3c0,52-19.6,69.3-67,69.3h-11.6c-48.5,0-71.7-15-71.7-86.7V370c0-72.8,24.3-86.7,72.8-86.7h10.4   c47.4,0,62.4,17.3,62.4,65.9h56.6c-4.6-71.7-53.2-115.6-123.7-115.6c-34.7,0-63.6,10.4-85.5,31.2c-32.4,30.1-50.9,82.1-50.9,154.9   c0,69.3,15,121.4,47.4,153.7c22,20.8,52,32.4,80.9,32.4c31.2,0,58.9-12.7,74-39.3h6.9V600h47.4V414h-139.9v47.4h90.2L1474.2,460.2z    M1018.8,285.7h56.6c53.2,0,82.1,13.9,82.1,85.5V466c0,72.8-28.9,85.5-82.1,85.5h-56.6V285.7z M1080.1,598.9   c98.2,0,135.2-75.1,135.2-180.3c0-107.5-39.3-180.3-136.4-180.3H968V600h112.1V598.9z M718.3,440.5h159.5v-47.4H718.3V284.5h174.5   v-47.4H666.3v361.8h234.6v-47.4H718.3V440.5z M414.4,237.1h-53.2v361.8h236.9v-47.4H413.2V238.3L414.4,237.1z M-0.6,598.9v236.9   h361.8v-53.2H52.6V597.7H-0.6V598.9z M-0.6,0.2v236.9h53.2V52.2h308.6V-1H-0.6V0.2z"></path>
</g>
</svg>
